<svg width="12" height="12" viewBox="0 0 12 12" fill="none" xmlns="http://www.w3.org/2000/svg">
<g id="&#240;&#159;&#166;&#134; icon &#34;University&#34;">
<path id="Vector" d="M11.9997 2.39996V2.79995C11.9997 2.85299 11.9787 2.90386 11.9412 2.94137C11.9037 2.97887 11.8528 2.99994 11.7998 2.99994H11.1998V3.29994C11.1998 3.46561 11.0654 3.59993 10.8998 3.59993H1.09998C0.934305 3.59993 0.799983 3.46561 0.799983 3.29994V2.99994H0.199996C0.146954 2.99994 0.0960839 2.97887 0.0585774 2.94137C0.0210709 2.90386 0 2.85299 0 2.79995V2.39996C2.8603e-07 2.36039 0.0117367 2.32171 0.0337243 2.28882C0.0557119 2.25592 0.0869626 2.23029 0.123522 2.21516L5.9234 0.0152065C5.97237 -0.00506882 6.02738 -0.00506882 6.07635 0.0152065L11.8762 2.21516C11.9128 2.23029 11.944 2.25592 11.966 2.28882C11.988 2.32171 11.9997 2.36039 11.9997 2.39996ZM11.3998 9.9998H0.599987C0.268619 9.9998 0 10.2684 0 10.5998V10.9998C0 11.0528 0.0210709 11.1037 0.0585774 11.1412C0.0960839 11.1787 0.146954 11.1998 0.199996 11.1998H11.7998C11.8528 11.1998 11.9037 11.1787 11.9412 11.1412C11.9787 11.1037 11.9997 11.0528 11.9997 10.9998V10.5998C11.9997 10.2684 11.7311 9.9998 11.3998 9.9998ZM1.99996 3.99992V8.79982H1.09998C0.934305 8.79982 0.799983 8.93414 0.799983 9.09982V9.5998H11.1998V9.09982C11.1998 8.93414 11.0654 8.79982 10.8998 8.79982H9.99979V3.99992H8.39982V8.79982H6.79986V3.99992H5.19989V8.79982H3.59992V3.99992H1.99996Z" fill="#7D8FB3"/>
</g>
</svg>
