<svg width="86" height="82" viewBox="0 0 86 82" fill="none" xmlns="http://www.w3.org/2000/svg">
<g id="Layer_1_1_">
<g id="Group">
<path id="Vector" fill-rule="evenodd" clip-rule="evenodd" d="M43.0003 4.67894C32.5941 4.55653 22.2641 11.6093 11.5417 12.9943V29.4217C11.2405 32.1853 11.1794 33.1258 4.82275 33.1258V52.3183C7.54549 52.3183 8.81901 55.6986 11.5417 55.6986V70.4317L42.6458 77.1598L74.1368 70.4317V55.6986C76.8595 55.6986 78.133 52.3183 80.8561 52.3183C80.8561 46.9074 80.8561 38.5371 80.8561 33.1258C74.4994 33.1258 74.438 32.1853 74.1368 29.4217V12.9512C63.5291 11.4692 53.3021 4.55794 43.0003 4.67894Z" fill="#BF2925"/>
<path id="Vector_2" fill-rule="evenodd" clip-rule="evenodd" d="M43.0002 4.67894H42.9988V77.0847L74.1367 70.432V55.699C76.8594 55.699 78.1329 52.3187 80.8557 52.3187C80.8557 46.9078 80.8557 38.5371 80.8557 33.1262C74.4986 33.1262 74.4376 32.1853 74.1367 29.422V12.9512C63.5294 11.4688 53.302 4.55794 43.0002 4.67894Z" fill="#AF1E22"/>
<path id="Vector_3" fill-rule="evenodd" clip-rule="evenodd" d="M27.0871 12.5776C23.2891 13.9877 19.4679 15.4066 15.4896 16.2864V29.4217C15.4896 34.4604 13.9649 36.4846 8.77059 36.9341V49.5004L11.5409 51.75H15.4896V67.25L42.9984 73.1932L70.5101 67.25V51.75H74.4588L77.2291 49.5004V36.9341C72.0348 36.4846 70.5101 34.4604 70.5101 29.4217V16.286C66.5319 15.4062 62.7106 13.9873 58.9126 12.5773C53.8252 10.6885 48.5011 8.61171 42.9999 8.61171C37.4987 8.61206 32.1749 10.6885 27.0871 12.5776ZM42.9988 81.2542L7.59302 73.6137V58.5166L4.82266 56.2666H0.874023V29.1772C1.7662 29.1772 7.38806 29.2266 7.59302 29.1035V12.9943V9.53846L11.0478 9.09219C15.3795 8.53269 19.8785 6.86229 24.3418 5.20494C30.4974 2.9193 36.3281 0.745483 43.0002 0.745483C49.6723 0.745483 55.503 2.9193 61.6583 5.20494C66.1216 6.86229 70.6206 8.53269 74.9523 9.09219L78.4071 9.53846V12.9943V29.1035C78.612 29.2266 84.2339 29.1772 85.126 29.1772V56.2666H81.1774L78.4071 58.5166V73.6137L42.9988 81.2542Z" fill="#EE9921"/>
<path id="Vector_4" fill-rule="evenodd" clip-rule="evenodd" d="M42.9988 73.1936L70.5105 67.2504V51.7504H74.4591L77.2295 49.5007V36.9344C72.0352 36.485 70.5105 34.4608 70.5105 29.4221V16.286C66.5322 15.4062 62.7109 13.9873 58.9129 12.5773C53.8255 10.6885 48.5014 8.61173 43.0002 8.61173H42.9988V0.74585H43.0002C49.6723 0.74585 55.503 2.91966 61.6582 5.20531C66.1216 6.86265 70.6205 8.53306 74.9523 9.09256L78.407 9.53882V12.9946V29.1039C78.612 29.227 84.2338 29.1776 85.126 29.1776V56.267H81.1774L78.407 58.517V73.6141L42.9988 81.2546V73.1936Z" fill="#E57C25"/>
</g>
</g>
</svg>
