<svg width="10" height="10" viewBox="0 0 10 10" fill="none" xmlns="http://www.w3.org/2000/svg">
<g id="physics (1) 1" clip-path="url(#clip0_1_1607)">
<path id="Vector" d="M9.33336 0.66334C8.57836 -0.0895768 7.25002 -0.486244 4.99294 1.08334C2.73794 -0.485827 1.40753 -0.0895768 0.654192 0.66334C-0.0991414 1.41626 -0.495808 2.74584 1.07419 5.00001C-0.495808 7.25417 -0.0987248 8.58334 0.654192 9.33667C0.861903 9.55073 1.11104 9.72024 1.38641 9.83486C1.66178 9.94948 1.95761 10.0068 2.25586 10.0033C2.96419 10.0033 3.86294 9.71167 4.99294 8.92251C6.12336 9.70959 7.02128 10.0038 7.73003 10.0038C8.02829 10.0073 8.32416 9.95007 8.59955 9.83544C8.87493 9.72082 9.12405 9.55125 9.33169 9.33709C10.0834 8.58334 10.4821 7.25417 8.91169 5.00001C10.4821 2.74584 10.0834 1.41667 9.33336 0.66334ZM7.69669 1.25334C7.83516 1.24889 7.97309 1.27271 8.10204 1.32336C8.23099 1.37401 8.34827 1.45042 8.44669 1.54792C9.01128 2.11209 8.69044 3.04792 8.10378 3.96459C7.80961 3.62251 7.48419 3.26667 7.10378 2.88792C6.72336 2.50917 6.36877 2.18417 6.02669 1.89001C6.5165 1.53244 7.09315 1.3126 7.69669 1.25334ZM7.34044 5.00001C6.93711 5.48792 6.52461 5.92251 6.22044 6.22667C5.91628 6.53084 5.48086 6.94334 4.99294 7.34626C4.50502 6.94334 4.07002 6.53126 3.76586 6.22667C3.46169 5.92209 3.04878 5.48792 2.64586 5.00001C3.04878 4.51209 3.46128 4.07751 3.76586 3.77334C4.07044 3.46917 4.50461 3.05626 4.99294 2.65334C5.48128 3.05626 5.91586 3.46876 6.22044 3.77334C6.52502 4.07792 6.93711 4.51209 7.34044 5.00001ZM1.53919 1.54792C1.6376 1.4504 1.75487 1.37398 1.88383 1.32333C2.01279 1.27268 2.15072 1.24886 2.28919 1.25334C2.89255 1.31285 3.46894 1.53299 3.95836 1.89084C3.61586 2.18501 3.26003 2.51001 2.88128 2.88876C2.50253 3.26751 2.17628 3.62501 1.88211 3.96542C1.29586 3.04709 0.974608 2.11209 1.53919 1.54792ZM1.53919 8.45209C0.974608 7.88792 1.29586 6.95209 1.88211 6.03542C2.17628 6.37751 2.50169 6.73334 2.88211 7.11209C3.26253 7.49084 3.61628 7.82042 3.95669 8.11209C3.03753 8.69626 2.10336 9.01584 1.53919 8.45209ZM8.44669 8.45209C7.88211 9.01626 6.94669 8.69626 6.03003 8.11126C6.37086 7.81959 6.72836 7.48834 7.10544 7.11126C7.48253 6.73417 7.80961 6.37667 8.10544 6.03459C8.69044 6.95292 9.01128 7.88792 8.44669 8.45209Z" fill="#64748B"/>
<path id="Vector_2" d="M5.00008 5.83335C5.46032 5.83335 5.83341 5.46026 5.83341 5.00002C5.83341 4.53978 5.46032 4.16669 5.00008 4.16669C4.53984 4.16669 4.16675 4.53978 4.16675 5.00002C4.16675 5.46026 4.53984 5.83335 5.00008 5.83335Z" fill="#64748B"/>
</g>
<defs>
<clipPath id="clip0_1_1607">
<rect width="10" height="10" fill="white"/>
</clipPath>
</defs>
</svg>
