<svg width="10" height="10" viewBox="0 0 10 10" fill="none" xmlns="http://www.w3.org/2000/svg">
<g id="puzzle-piece 1" clip-path="url(#clip0_1_1603)">
<path id="Vector" d="M8.33333 4.375C8.05243 4.38474 7.77324 4.42285 7.5 4.48875C7.47504 3.95298 7.24465 3.44742 6.85669 3.07708C6.46873 2.70673 5.95301 2.50006 5.41667 2.5H5.30333C5.36932 2.22679 5.40729 1.94757 5.41667 1.66667C5.41667 1.22464 5.24107 0.800716 4.92851 0.488155C4.61595 0.175595 4.19203 0 3.75 0C3.30797 0 2.88405 0.175595 2.57149 0.488155C2.25893 0.800716 2.08333 1.22464 2.08333 1.66667C2.09271 1.94757 2.13068 2.22679 2.19667 2.5H2.08333C1.5308 2.5 1.0009 2.71949 0.610194 3.11019C0.219493 3.5009 0 4.0308 0 4.58333L0 7.91667C0 8.19025 0.053887 8.46116 0.158584 8.71392C0.263282 8.96669 0.416739 9.19635 0.610194 9.38981C1.0009 9.78051 1.5308 10 2.08333 10H2.59333C2.6429 10.0002 2.69184 9.98895 2.73634 9.96711C2.78084 9.94528 2.8197 9.91346 2.84987 9.87413C2.88004 9.8348 2.90071 9.78903 2.91028 9.7404C2.91984 9.69176 2.91803 9.64157 2.905 9.59375C2.75958 9.06917 2.5 8.75 2.5 8.33333C2.5 8.00181 2.6317 7.68387 2.86612 7.44945C3.10054 7.21503 3.41848 7.08333 3.75 7.08333C4.08152 7.08333 4.39946 7.21503 4.63388 7.44945C4.8683 7.68387 5 8.00181 5 8.33333C5 8.75 4.73667 9.07 4.59458 9.59542C4.58185 9.64313 4.58028 9.69314 4.58999 9.74156C4.59969 9.78998 4.62042 9.83551 4.65056 9.87464C4.68069 9.91376 4.71943 9.94542 4.76377 9.96716C4.80811 9.9889 4.85687 10.0001 4.90625 10H5.41667C5.69025 10 5.96116 9.94611 6.21392 9.84142C6.46669 9.73672 6.69635 9.58326 6.88981 9.38981C7.08326 9.19635 7.23672 8.96669 7.34142 8.71392C7.44611 8.46116 7.5 8.19025 7.5 7.91667V7.595C7.77325 7.66073 8.05245 7.6987 8.33333 7.70833C8.77536 7.70833 9.19928 7.53274 9.51184 7.22018C9.8244 6.90762 10 6.48369 10 6.04167C10 5.59964 9.8244 5.17572 9.51184 4.86316C9.19928 4.55059 8.77536 4.375 8.33333 4.375Z" fill="#64748B"/>
</g>
<defs>
<clipPath id="clip0_1_1603">
<rect width="10" height="10" fill="white"/>
</clipPath>
</defs>
</svg>
