<svg width="23" height="21" viewBox="0 0 23 21" fill="none" xmlns="http://www.w3.org/2000/svg">
<g id="Layer_1_1_">
<g id="Group">
<path id="Vector" fill-rule="evenodd" clip-rule="evenodd" d="M11.5 1.41983C8.8984 1.38922 6.31589 3.1524 3.63532 3.49866V7.60551C3.56 8.29643 3.54474 8.53155 1.95557 8.53155V13.3297C2.63625 13.3297 2.95463 14.1748 3.63532 14.1748V17.858L11.4113 19.5401L19.2841 17.858V14.1748C19.9648 14.1748 20.2831 13.3297 20.9639 13.3297C20.9639 11.9769 20.9639 9.88436 20.9639 8.53155C19.3747 8.53155 19.3594 8.29643 19.2841 7.60551V3.4879C16.6322 3.11739 14.0754 1.38958 11.5 1.41983Z" fill="#D9D9D9"/>
<path id="Vector_2" fill-rule="evenodd" clip-rule="evenodd" d="M11.5001 1.41983H11.4998V19.5213L19.2842 17.8581V14.1748C19.9649 14.1748 20.2833 13.3298 20.964 13.3298C20.964 11.977 20.964 9.88436 20.964 8.53164C19.3747 8.53164 19.3595 8.29642 19.2842 7.6056V3.48789C16.6324 3.1173 14.0756 1.38958 11.5001 1.41983Z" fill="#C4C4C4"/>
<path id="Vector_3" fill-rule="evenodd" clip-rule="evenodd" d="M7.52178 3.39444C6.57228 3.74695 5.61696 4.10167 4.6224 4.32163V7.60545C4.6224 8.86513 4.24122 9.37119 2.94265 9.48355V12.6251L3.63524 13.1875H4.6224V17.0625L11.4996 18.5483L18.3775 17.0625V13.1875H19.3647L20.0573 12.6251V9.48355C18.7587 9.37119 18.3775 8.86513 18.3775 7.60545V4.32154C17.383 4.10158 16.4276 3.74686 15.4781 3.39435C14.2063 2.92216 12.8753 2.40296 11.5 2.40296C10.1247 2.40305 8.79372 2.92216 7.52178 3.39444ZM11.4997 20.5636L2.64825 18.6535V14.8792L1.95566 14.3167H0.968506V7.54433C1.19155 7.54433 2.59701 7.55668 2.64825 7.5259V3.4986V2.63464L3.51194 2.52308C4.59488 2.3832 5.71962 1.9656 6.83546 1.55127C8.37436 0.979855 9.83203 0.436401 11.5001 0.436401C13.1681 0.436401 14.6257 0.979855 16.1646 1.55127C17.2804 1.9656 18.4051 2.3832 19.4881 2.52308L20.3518 2.63464V3.4986V7.5259C20.403 7.55668 21.8085 7.54433 22.0315 7.54433V14.3167H21.0443L20.3518 14.8792V18.6535L11.4997 20.5636Z" fill="#E9ECEF"/>
<path id="Vector_4" fill-rule="evenodd" clip-rule="evenodd" d="M11.4998 18.5485L18.3777 17.0627V13.1877H19.3648L20.0574 12.6252V9.48367C18.7589 9.37131 18.3777 8.86526 18.3777 7.60558V4.32157C17.3831 4.10162 16.4278 3.7469 15.4783 3.39438C14.2064 2.92219 12.8754 2.40299 11.5001 2.40299H11.4998V0.436523H11.5001C13.1681 0.436523 14.6258 0.979977 16.1646 1.55139C17.2805 1.96572 18.4052 2.38332 19.4881 2.5232L20.3518 2.63477V3.49872V7.52602C20.4031 7.5568 21.8085 7.54446 22.0316 7.54446V14.3168H21.0444L20.3518 14.8793V18.6536L11.4998 20.5637V18.5485Z" fill="#D2D2D2"/>
</g>
</g>
</svg>
