<svg width="50" height="50" viewBox="0 0 50 50" fill="none" xmlns="http://www.w3.org/2000/svg">
<g id="Icon">
<path id="Icon_2" fill-rule="evenodd" clip-rule="evenodd" d="M40 36.6667V13.3333C40 11.5 38.5 10 36.6667 10H13.3333C11.5 10 10 11.5 10 13.3333V36.6667C10 38.5 11.5 40 13.3333 40H36.6667C38.5 40 40 38.5 40 36.6667ZM19.8333 28.3L23.3333 32.5167L28.5 25.8667C28.8333 25.4333 29.5 25.4333 29.8333 25.8833L35.6833 33.6833C36.1 34.2333 35.7 35.0167 35.0167 35.0167H15.0333C14.3333 35.0167 13.95 34.2167 14.3833 33.6667L18.5333 28.3333C18.85 27.9 19.4833 27.8833 19.8333 28.3Z" fill="#ADB8CC"/>
</g>
</svg>
