<svg width="20" height="20" viewBox="0 0 20 20" fill="none" xmlns="http://www.w3.org/2000/svg">
<g id="medal 1" clip-path="url(#clip0_2_9758)">
<g id="Group">
<g id="Group_2">
<path id="Vector" d="M12.3438 20C12.3232 20 12.3026 19.9989 12.282 19.9966C12.0462 19.9719 11.8494 19.8071 11.7818 19.58L10.3283 14.5792C10.2482 14.3063 10.3752 14.015 10.6304 13.8885C10.7346 13.8364 10.8262 13.7775 10.9165 13.7031C11.0665 13.5795 11.2668 13.5395 11.4533 13.5932C11.8241 13.7025 12.1549 13.6974 12.433 13.5795C12.7306 13.4593 12.9744 13.2212 13.1632 12.8699C13.2548 12.7005 13.423 12.5866 13.613 12.5648C14.0227 12.519 14.3398 12.3863 14.5549 12.1705C14.6019 12.1242 14.6511 12.067 14.6911 12.0103C14.8216 11.8289 15.0414 11.7379 15.2657 11.7728C15.4866 11.81 15.6663 11.9697 15.7304 12.1843L17.406 17.845C17.4735 18.0728 17.3968 18.3183 17.2125 18.4677C17.0283 18.6159 16.7696 18.6399 16.5636 18.526L14.1601 17.2134L12.8588 19.6933C12.7558 19.8838 12.5567 20 12.3438 20Z" fill="#E63950"/>
</g>
<g id="Group_3">
<path id="Vector_2" d="M7.6787 20C7.46583 20 7.26667 19.8838 7.16366 19.6933L5.86232 17.2134L3.45885 18.5262C3.25285 18.6401 2.99302 18.616 2.80992 18.4672C2.62564 18.3179 2.54896 18.0724 2.6165 17.8446L4.29322 12.2072C4.35733 11.9927 4.53817 11.833 4.75905 11.7963C4.97649 11.758 5.20198 11.8513 5.33247 12.0338C5.37024 12.0876 5.40802 12.1345 5.44693 12.1729C5.64835 12.3818 5.94709 12.5088 6.36483 12.5672C6.54567 12.5918 6.70474 12.7 6.79401 12.8585C6.992 13.207 7.2312 13.4416 7.50592 13.556C7.79661 13.6854 8.13426 13.6877 8.51765 13.5715C8.7065 13.5143 8.91136 13.556 9.06243 13.682C9.15514 13.7592 9.26503 13.8313 9.40922 13.9091C9.65417 14.0407 9.77316 14.3257 9.69421 14.5919L8.24067 19.5805C8.17313 19.8077 7.97514 19.972 7.73937 19.9965C7.71879 19.9989 7.69933 20 7.6787 20Z" fill="#FF6C6C"/>
</g>
<g id="Group_4">
<path id="Vector_3" d="M9.99992 15.2339C9.47448 15.2339 9.0065 15.0604 8.5624 14.7681C8.01531 14.8837 7.50144 14.8368 7.04249 14.6325C6.6087 14.4516 6.23104 14.1306 5.92543 13.6796C5.37377 13.5623 4.94115 13.3363 4.60925 12.9929C4.25234 12.6304 4.03489 12.1573 3.93285 11.659C3.47047 11.3545 3.14086 10.9642 2.95202 10.4956C2.76774 10.0555 2.72539 9.55192 2.82728 9.02945C2.53198 8.58082 2.38208 8.1064 2.38208 7.61596C2.38208 7.1238 2.53889 6.64196 2.84791 6.17957C2.73461 5.62964 2.77923 5.11974 2.98296 4.66021C3.1638 4.22528 3.48539 3.84759 3.93633 3.54143C4.05306 2.98977 4.27968 2.55715 4.62304 2.22525C4.96408 1.88475 5.41389 1.65586 5.95867 1.54768C6.26312 1.08643 6.65225 0.757958 7.12035 0.568565C7.56097 0.385422 8.06458 0.340808 8.58646 0.44324C9.4826 -0.149043 10.5138 -0.153614 11.4363 0.464414C11.9823 0.351669 12.5018 0.39804 12.9562 0.59888C13.3911 0.780304 13.7688 1.10131 14.0744 1.55225C14.6261 1.66957 15.0587 1.89561 15.3906 2.23896C15.7316 2.58118 15.9594 3.0304 16.0682 3.57346C16.5294 3.8779 16.859 4.26818 17.0479 4.73631C17.2321 5.17639 17.2745 5.67995 17.1726 6.20242C17.4679 6.65106 17.6178 7.12548 17.6178 7.61592C17.6178 8.10808 17.461 8.58992 17.152 9.05231C17.2653 9.60224 17.2206 10.1121 17.0169 10.5717C16.8361 11.0071 16.5133 11.3854 16.0612 11.6916C15.9322 12.2839 15.7145 12.6633 15.386 12.998C15.0369 13.346 14.5859 13.576 14.0412 13.6842C13.7367 14.1448 13.3476 14.4739 12.8795 14.6633C12.44 14.8481 11.9387 14.8916 11.4145 14.7886C10.9872 15.063 10.5137 15.2339 9.99992 15.2339Z" fill="#FABE2C"/>
</g>
<path id="Vector_4" d="M10 15.2339C10.5139 15.2339 10.9874 15.0629 11.4146 14.7887C11.9388 14.8917 12.4401 14.8482 12.8796 14.6634C13.3477 14.4739 13.7368 14.1449 14.0413 13.6842C14.5861 13.5761 15.037 13.3461 15.3861 12.9981C15.7131 12.6649 15.9317 12.2873 16.0614 11.6917C16.5134 11.3855 16.8362 11.0072 17.017 10.5718C17.2208 10.1122 17.2654 9.60237 17.1521 9.0524C17.4611 8.59001 17.6179 8.10817 17.6179 7.61601C17.6179 7.12557 17.468 6.65119 17.1727 6.20252C17.2746 5.68005 17.2322 5.17644 17.048 4.7364C16.8591 4.26831 16.5295 3.878 16.0683 3.57355C15.9596 3.03049 15.7318 2.58127 15.3907 2.23905C15.0588 1.8957 14.6262 1.66966 14.0745 1.55235C13.769 1.1014 13.3913 0.780358 12.9563 0.598973C12.502 0.398095 11.9823 0.351762 11.4364 0.464507C10.9746 0.15522 10.4857 0.00204119 10 0.000244141V15.2339H10Z" fill="#FF9100"/>
<g id="Group_5">
<path id="Vector_5" d="M10 12.8899C7.09181 12.8899 4.72607 10.5242 4.72607 7.61598C4.72607 4.70778 7.09181 2.34204 10 2.34204C12.9082 2.34204 15.274 4.70778 15.274 7.61598C15.274 10.5242 12.9082 12.8899 10 12.8899Z" fill="#FED843"/>
</g>
<path id="Vector_6" d="M10 12.8899C12.9082 12.8899 15.2739 10.5242 15.2739 7.61598C15.2739 4.70778 12.9082 2.34204 10 2.34204V12.8899Z" fill="#FABE2C"/>
<g id="Rewards_1_">
<g id="Group_6">
<path id="Vector_7" d="M10.9349 9.79574L9.99986 9.30987L9.06477 9.79574C8.86905 9.89704 8.62985 9.8793 8.45018 9.74995C8.27048 9.61947 8.18008 9.39859 8.21668 9.17998L8.38838 8.13902L7.63873 7.3991C7.47556 7.24003 7.42567 7.00418 7.49224 6.80053C7.56091 6.58992 7.74289 6.43542 7.96263 6.40225L9.00414 6.24544L9.47567 5.30293C9.67483 4.90578 10.3249 4.90578 10.5241 5.30293L10.9956 6.24544L12.0371 6.40225C12.2568 6.43546 12.4388 6.58996 12.5075 6.80053C12.5762 7.01168 12.5201 7.24346 12.361 7.3991L11.6113 8.13902L11.783 9.17998C11.8197 9.39859 11.7292 9.61947 11.5495 9.74995C11.3711 9.8793 11.1323 9.89841 10.9349 9.79574Z" fill="#FABE2C"/>
</g>
</g>
<path id="Vector_8" d="M10 9.30997L10.9351 9.79576C11.1328 9.89866 11.3715 9.87909 11.5497 9.74997C11.7294 9.61949 11.8198 9.39861 11.7832 9.18L11.6115 8.13904L12.3611 7.39912C12.5202 7.24348 12.5763 7.0117 12.5076 6.80055C12.4389 6.58994 12.257 6.43544 12.0372 6.40227L10.9957 6.24546L10.5242 5.30295C10.4246 5.10437 10.2123 5.00507 10 5.00507V9.30997Z" fill="#FF9100"/>
</g>
</g>
<defs>
<clipPath id="clip0_2_9758">
<rect width="20" height="20" fill="white"/>
</clipPath>
</defs>
</svg>
