<svg width="20" height="20" viewBox="0 0 20 20" fill="none" xmlns="http://www.w3.org/2000/svg">
<g id="003-shield">
<g id="Layer_1_2_">
<g id="Group">
<path id="Vector" fill-rule="evenodd" clip-rule="evenodd" d="M2.59131 3.46086C5.15995 3.46086 7.43127 1.58789 9.99984 1.58789C12.5685 1.58789 14.8398 3.46086 17.4084 3.46086V7.66779C16.5867 8.05112 16.0171 8.88459 16.0171 9.85113C16.0171 10.8177 16.5867 11.6511 17.4084 12.0345V15.1087L9.99984 16.7944L2.59131 15.1087V12.0812C3.47015 11.7222 4.08955 10.8591 4.08955 9.85113C4.08955 8.84318 3.47015 7.98 2.59131 7.62102V3.46086Z" fill="#BF2925"/>
<path id="Vector_2" fill-rule="evenodd" clip-rule="evenodd" d="M10 1.58783C12.5687 1.58783 14.84 3.46087 17.4087 3.46087V7.6678C16.5869 8.0512 16.0173 8.88467 16.0173 9.85121C16.0173 10.8178 16.5869 11.6512 17.4087 12.0346V15.1088L10.0001 16.7944L10 1.58783Z" fill="#AF1E22"/>
<path id="Vector_3" fill-rule="evenodd" clip-rule="evenodd" d="M6.01194 1.79018C7.29372 1.29417 8.57543 0.798096 10 0.798096C11.4246 0.798096 12.7064 1.29417 13.9882 1.79018C15.672 2.44183 16.4189 2.67113 18.1983 2.67113V7.66773V8.16733C17.4349 8.52342 16.8069 8.86103 16.8069 9.85114C16.8069 10.8419 17.4349 11.1757 18.1983 11.5318V15.1087V15.7364L17.5814 15.8768L10 17.6018L1.80176 15.7365V11.5548C2.62874 11.217 3.3 10.8757 3.3 9.85121C3.3 8.82674 2.62881 8.48525 1.80176 8.1475V2.67113C3.58124 2.67113 4.32807 2.44176 6.01194 1.79018ZM6.57949 3.25843C5.53887 3.66116 4.49818 4.06382 3.38114 4.20113V7.14667C4.3105 7.7308 4.87939 8.75061 4.87939 9.85121C4.87939 10.9517 4.3105 11.9715 3.38114 12.5557V14.4811L10 15.9871L16.619 14.4811V12.4886C15.7542 11.8929 15.2275 10.9039 15.2275 9.85114C15.2275 8.79781 15.7528 7.81109 16.619 7.21617V4.20113C15.5019 4.0639 14.4612 3.66116 13.4205 3.25843C12.2823 2.81796 11.1441 2.37748 10 2.37748C8.85596 2.37748 7.71769 2.81796 6.57949 3.25843Z" fill="#EE9921"/>
<path id="Vector_4" fill-rule="evenodd" clip-rule="evenodd" d="M10 0.798096C11.4246 0.798096 12.7064 1.29417 13.9881 1.79018C15.672 2.44183 16.4189 2.67113 18.1983 2.67113V7.66773V8.16733C17.4349 8.52342 16.8069 8.86103 16.8069 9.85114C16.8069 10.8419 17.4349 11.1757 18.1983 11.5318V15.1087V15.7364L17.5814 15.8768L10 17.6018V15.987L16.619 14.4809V12.4885C15.7542 11.8927 15.2276 10.9038 15.2276 9.85099C15.2276 8.79767 15.7529 7.81095 16.619 7.21603V4.20113C15.5019 4.0639 14.4612 3.66116 13.4206 3.25843C12.2823 2.81796 11.1441 2.37748 10.0001 2.37748L10 0.798096Z" fill="#E57C25"/>
</g>
</g>
</g>
</svg>
