<svg width="163" height="168" viewBox="0 0 163 168" fill="none" xmlns="http://www.w3.org/2000/svg">
<g id="Group 198">
<g id="Group 199">
<path id="Vector" d="M85.7495 91.1437H4.85737C3.28582 91.1437 2 89.677 2 87.8844V5.25937C2 3.46672 3.28582 2 4.85737 2H85.7495C87.3211 2 88.6069 3.46672 88.6069 5.25937V87.8844C88.6069 89.677 87.3211 91.1437 85.7495 91.1437Z" stroke="#5388D8" stroke-opacity="0.6" stroke-width="3" stroke-miterlimit="10"/>
<path id="Vector_2" d="M23.6302 75.2711C25.0505 75.2711 26.2019 73.9577 26.2019 72.3376C26.2019 70.7175 25.0505 69.4042 23.6302 69.4042C22.21 69.4042 21.0586 70.7175 21.0586 72.3376C21.0586 73.9577 22.21 75.2711 23.6302 75.2711Z" fill="white"/>
<path id="Vector_3" d="M62.3451 75.2711C63.7653 75.2711 64.9167 73.9577 64.9167 72.3376C64.9167 70.7175 63.7653 69.4042 62.3451 69.4042C60.9248 69.4042 59.7734 70.7175 59.7734 72.3376C59.7734 73.9577 60.9248 75.2711 62.3451 75.2711Z" fill="white"/>
<path id="Vector_4" d="M43.0599 75.2711C44.4802 75.2711 45.6316 73.9577 45.6316 72.3376C45.6316 70.7175 44.4802 69.4042 43.0599 69.4042C41.6396 69.4042 40.4883 70.7175 40.4883 72.3376C40.4883 73.9577 41.6396 75.2711 43.0599 75.2711Z" fill="white"/>
<path id="Vector_5" d="M78.2626 20.1876H12.3145C12.2002 20.1876 12.0859 20.0572 12.0859 19.8616C12.0859 19.6661 12.1717 19.5357 12.3145 19.5357H78.2912C78.4055 19.5357 78.5198 19.6661 78.5198 19.8616C78.5198 20.0572 78.4055 20.1876 78.2626 20.1876Z" fill="white"/>
<path id="Vector_6" d="M78.2626 31.2698H12.3145C12.2002 31.2698 12.0859 31.1395 12.0859 30.9439C12.0859 30.7483 12.1717 30.618 12.3145 30.618H78.2912C78.4055 30.618 78.5198 30.7483 78.5198 30.9439C78.5198 31.1395 78.4055 31.2698 78.2626 31.2698Z" fill="white"/>
<path id="Vector_7" d="M78.2626 42.351H12.3145C12.2002 42.351 12.0859 42.2206 12.0859 42.025C12.0859 41.8295 12.1717 41.6991 12.3145 41.6991H78.2912C78.4055 41.6991 78.5198 41.8295 78.5198 42.025C78.5198 42.2206 78.4055 42.351 78.2626 42.351Z" fill="white"/>
<path id="Vector_8" d="M78.2626 53.4332H12.3145C12.2002 53.4332 12.0859 53.3029 12.0859 53.1073C12.0859 52.9117 12.1717 52.7814 12.3145 52.7814H78.2912C78.4055 52.7814 78.5198 52.9117 78.5198 53.1073C78.5198 53.3029 78.4055 53.4332 78.2626 53.4332Z" fill="white"/>
<path id="Vector_9" d="M27.7737 64.5144H19.4873C18.6872 64.5144 18.0586 63.7974 18.0586 62.8848V43.0026C18.0586 42.09 18.6872 41.3729 19.4873 41.3729H27.7737C28.5737 41.3729 29.2023 42.09 29.2023 43.0026V62.8848C29.2023 63.7648 28.5737 64.5144 27.7737 64.5144Z" fill="#84B3FB"/>
<path id="Vector_10" d="M47.2033 64.5151H38.917C38.1169 64.5151 37.4883 63.7981 37.4883 62.8855V31.9215C37.4883 31.0088 38.1169 30.2918 38.917 30.2918H47.2033C48.0034 30.2918 48.632 31.0088 48.632 31.9215V62.8855C48.632 63.7655 48.0034 64.5151 47.2033 64.5151Z" fill="#84B3FB"/>
<path id="Vector_11" d="M66.4924 64.515H58.206C57.406 64.515 56.7773 63.7979 56.7773 62.8853V21.1654C56.7773 20.2528 57.406 19.5357 58.206 19.5357H66.4924C67.2925 19.5357 67.9211 20.2528 67.9211 21.1654V62.8853C67.9211 63.7653 67.2925 64.515 66.4924 64.515Z" fill="#84B3FB"/>
<path id="Vector_12" d="M78.2626 64.8406H12.3145C12.2002 64.8406 12.0859 64.7102 12.0859 64.5146C12.0859 64.3191 12.1717 64.1887 12.3145 64.1887H78.2912C78.4055 64.1887 78.5198 64.3191 78.5198 64.5146C78.5198 64.7102 78.4055 64.8406 78.2626 64.8406Z" fill="#C4DBF7"/>
<path id="Vector_13" d="M115.125 166.142C112.553 163.665 110.981 159.754 111.41 155.94C111.839 152.127 114.353 148.639 117.639 147.825C120.925 147.01 124.668 149.259 125.668 152.909C126.211 145.836 126.84 138.47 130.154 132.473C133.126 127.03 138.298 123.119 143.898 122.434C149.499 121.75 155.385 124.357 158.871 129.409C162.357 134.461 163.214 141.762 160.785 147.564C158.985 151.834 155.671 154.995 152.185 157.57C140.955 165.849 127.468 169.206 114.239 167.022L115.125 166.142Z" fill="#C4DBF7"/>
<path id="Vector_14" d="M153.328 124.519C148.7 128.821 144.471 133.613 140.67 138.86C134.727 147.041 129.927 156.2 126.412 166.011C126.155 166.728 127.184 167.054 127.441 166.337C133.184 150.366 142.328 136.285 154.071 125.399C154.614 124.878 153.871 124.03 153.328 124.519Z" fill="#F5F6FA"/>
<path id="Vector_15" d="M82.1496 77.3235C81.9496 77.2909 81.7495 77.2257 81.5495 77.1279C81.521 77.0953 81.4924 77.0953 81.4352 77.0627L40.1748 50.8574C39.7176 50.564 39.4891 49.9448 39.6033 49.4233C39.6891 49.0973 39.8605 48.8692 40.032 48.8366C40.2605 48.7714 40.4891 48.7714 40.6891 48.9018L82.4639 73.2493C83.4068 73.8033 83.9497 75.0745 83.7211 76.1175C83.6068 76.6716 83.2925 77.0627 82.8353 77.2257C82.6068 77.3235 82.3782 77.3561 82.1496 77.3235Z" fill="#000022"/>
<path id="Vector_16" d="M73.2066 73.8362C74.5781 74.7489 76.3497 74.2274 77.1497 72.6629C77.2355 72.4999 77.3212 72.3369 77.3783 72.1414L87.5791 72.3695L84.7503 67.2523L75.4925 67.8064C73.9495 67.2849 72.3494 68.2953 71.8922 70.0228C71.4921 71.5221 72.035 73.0866 73.2066 73.8362Z" fill="#FFB8B8"/>
<path id="Vector_17" d="M77.6353 71.9785L77.5781 68.3932C77.5781 67.6435 78.0639 66.9917 78.7496 66.8939L97.094 64.8731L112.381 59.1692C114.295 58.4521 116.381 59.6581 117.01 61.8418C117.638 64.0256 116.581 66.405 114.667 67.122C114.638 67.122 114.61 67.1546 114.552 67.1546L97.6369 72.8911L78.9497 73.4452C78.3782 73.4452 77.8639 73.0215 77.6924 72.4022C77.6638 72.2392 77.6353 72.1089 77.6353 71.9785Z" fill="#467FFF"/>
<path id="Vector_18" d="M104.777 163.991H101.291L99.6055 148.606H104.777V163.991Z" fill="#FFB8B8"/>
<path id="Vector_19" d="M105.666 167.869H94.3789V167.706C94.3789 164.936 96.3505 162.687 98.7793 162.687H105.666V167.869Z" fill="#000022"/>
<path id="Vector_20" d="M115.066 163.991H111.58L109.895 148.606H115.066V163.991Z" fill="#FFB8B8"/>
<path id="Vector_21" d="M115.955 167.869H104.668V167.706C104.668 164.936 106.64 162.687 109.068 162.687H115.955V167.869Z" fill="#000022"/>
<path id="Vector_22" d="M117.41 101.704L116.582 158.319C116.582 159.036 116.039 159.623 115.41 159.59C115.381 159.59 115.353 159.59 115.324 159.59L111.238 159.167C110.695 159.101 110.238 158.613 110.21 157.961L107.809 122.662C107.809 122.466 107.667 122.336 107.495 122.368C107.352 122.368 107.238 122.531 107.238 122.694L106.038 158.808C106.009 159.493 105.524 160.047 104.895 160.047H100.495C99.8945 160.047 99.3802 159.525 99.3516 158.808L96.2656 101.378L114.553 96.1631L117.41 101.704Z" fill="#000022"/>
<path id="Vector_23" d="M104.15 49.5761C108.032 49.5761 111.179 45.9863 111.179 41.5581C111.179 37.1298 108.032 33.54 104.15 33.54C100.268 33.54 97.1211 37.1298 97.1211 41.5581C97.1211 45.9863 100.268 49.5761 104.15 49.5761Z" fill="#FFB8B8"/>
<path id="Vector_24" d="M95.6356 103.398C95.3785 103.138 95.2356 102.747 95.2356 102.355L94.7784 63.7646C94.7213 59.723 96.95 56.1377 100.293 54.8339C100.95 51.4442 104.436 51.0204 106.494 51.053C107.522 51.0856 108.494 51.6723 109.065 52.6501L110.523 55.1598L113.751 57.311C116.809 59.3644 118.38 63.406 117.609 67.3499L117.123 69.9248C115.38 79.051 115.551 88.5032 117.609 97.5316L118.609 101.867C118.78 102.649 118.38 103.464 117.695 103.659C117.552 103.692 117.409 103.724 117.266 103.692L116.094 103.594C115.466 103.529 114.98 102.975 114.923 102.29L114.723 100.107C114.723 100.009 114.637 99.9436 114.58 99.9762C114.523 99.9762 114.466 100.041 114.466 100.107L114.266 102.225C114.209 102.975 113.666 103.529 113.008 103.561L96.6071 103.855C96.6071 103.855 96.6071 103.855 96.5786 103.855C96.2071 103.822 95.8928 103.659 95.6356 103.398Z" fill="#467FFF"/>
<path id="Vector_25" d="M104.692 46.1545C104.721 47.2953 105.406 47.9472 106.264 48.5339C107.121 49.1206 108.092 49.3813 109.064 49.6421C109.492 49.9028 110.007 49.7072 110.235 49.2509C110.292 49.1206 110.321 48.9576 110.35 48.7946L111.235 44.9486C111.55 43.71 111.778 42.4714 111.921 41.2003C112.121 38.7558 111.635 36.1157 110.121 34.3556C108.607 32.5956 106.035 31.9437 104.235 33.3126C102.092 30.2162 92.3768 37.0609 94.777 39.2121C95.2056 39.6032 95.8628 39.1143 96.4057 39.0491C96.9486 38.9839 97.5486 39.1143 97.8915 39.6032C98.3487 40.2225 98.1487 41.1677 98.3201 41.95C98.6344 43.0907 99.7202 43.7426 100.72 43.3841C100.72 43.3841 100.72 43.3841 100.749 43.3841C101.206 43.1233 101.606 42.83 102.006 42.4714C102.435 42.1455 102.949 41.9174 103.406 42.1129C104.035 42.3737 104.235 43.2537 104.292 43.9708C104.378 44.6878 104.521 45.4375 104.692 46.1545Z" fill="#000022"/>
<path id="Vector_26" d="M156.698 168H47.8326C47.6612 168 47.5469 167.869 47.5469 167.674C47.5469 167.478 47.6612 167.348 47.8326 167.348H156.698C156.87 167.348 156.984 167.478 156.984 167.674C156.984 167.869 156.841 168 156.698 168Z" fill="#000022"/>
<path id="Vector_27" opacity="0.2" d="M103.065 66.6334L101.922 82.6043L95.9219 99.2271L104.78 82.9302L103.065 66.6334Z" fill="black"/>
<path id="Vector_28" d="M94.5221 105.42C95.7508 104.279 95.9508 102.225 94.9507 100.824C94.8364 100.661 94.7221 100.531 94.6078 100.4L98.4367 89.6117L93.2363 90.8176L90.4075 100.889C89.436 102.323 89.6932 104.409 90.9504 105.517C92.0076 106.397 93.4935 106.365 94.5221 105.42Z" fill="#FFB8B8"/>
<path id="Vector_29" d="M94.2363 100.629L91.2933 99.4226C90.6646 99.1619 90.3218 98.3796 90.4932 97.6626L95.3507 77.3893L96.0936 59.0717C96.1794 56.7575 97.8938 54.9974 99.9225 55.0952C101.951 55.193 103.494 57.1486 103.409 59.4628C103.409 59.4954 103.409 59.528 103.409 59.5932L102.094 79.6709L95.8936 99.7812C95.6936 100.4 95.1793 100.792 94.5792 100.759C94.4649 100.726 94.3506 100.694 94.2363 100.629Z" fill="#467FFF"/>
</g>
</g>
</svg>
